<svg width="132" height="19" viewBox="0 0 132 19" fill="none" xmlns="http://www.w3.org/2000/svg">
<path d="M0.558 7.52C0.558 6.74 0.696 5.972 0.972 5.216C1.26 4.448 1.674 3.764 2.214 3.164C2.754 2.564 3.414 2.078 4.194 1.706C4.974 1.334 5.862 1.148 6.858 1.148C8.034 1.148 9.048 1.406 9.9 1.922C10.764 2.438 11.406 3.11 11.826 3.938L9.918 5.252C9.75 4.892 9.546 4.592 9.306 4.352C9.066 4.1 8.808 3.902 8.532 3.758C8.256 3.614 7.968 3.512 7.668 3.452C7.368 3.38 7.074 3.344 6.786 3.344C6.162 3.344 5.616 3.47 5.148 3.722C4.692 3.974 4.308 4.304 3.996 4.712C3.696 5.108 3.468 5.564 3.312 6.08C3.156 6.584 3.078 7.088 3.078 7.592C3.078 8.156 3.168 8.702 3.348 9.23C3.528 9.746 3.78 10.202 4.104 10.598C4.44 10.994 4.836 11.312 5.292 11.552C5.76 11.792 6.27 11.912 6.822 11.912C7.11 11.912 7.41 11.876 7.722 11.804C8.034 11.732 8.328 11.618 8.604 11.462C8.892 11.306 9.156 11.108 9.396 10.868C9.636 10.616 9.828 10.316 9.972 9.968L12.006 11.138C11.802 11.618 11.508 12.044 11.124 12.416C10.752 12.776 10.326 13.082 9.846 13.334C9.378 13.586 8.874 13.778 8.334 13.91C7.794 14.042 7.266 14.108 6.75 14.108C5.838 14.108 5.004 13.916 4.248 13.532C3.492 13.148 2.838 12.65 2.286 12.038C1.746 11.414 1.32 10.712 1.008 9.932C0.708 9.14 0.558 8.336 0.558 7.52ZM16.3178 14.18C15.3458 14.18 14.6078 13.868 14.1038 13.244C13.5998 12.62 13.3478 11.696 13.3478 10.472V4.568H15.7598V9.95C15.7598 11.402 16.2818 12.128 17.3258 12.128C17.7938 12.128 18.2438 11.99 18.6758 11.714C19.1198 11.426 19.4798 10.994 19.7558 10.418V4.568H22.1678V11.228C22.1678 11.48 22.2098 11.66 22.2938 11.768C22.3898 11.876 22.5398 11.936 22.7438 11.948V14C22.5038 14.048 22.2998 14.078 22.1318 14.09C21.9758 14.102 21.8318 14.108 21.6998 14.108C21.2678 14.108 20.9138 14.012 20.6378 13.82C20.3738 13.616 20.2178 13.34 20.1698 12.992L20.1158 12.236C19.6958 12.884 19.1558 13.37 18.4958 13.694C17.8358 14.018 17.1098 14.18 16.3178 14.18ZM30.2168 14.18C29.4728 14.18 28.8248 14.018 28.2728 13.694C27.7208 13.358 27.2888 12.908 26.9768 12.344V17.834H24.5648V4.568H26.6708V6.188C27.0188 5.636 27.4688 5.204 28.0208 4.892C28.5728 4.568 29.2088 4.406 29.9288 4.406C30.5648 4.406 31.1528 4.538 31.6928 4.802C32.2328 5.054 32.6948 5.402 33.0788 5.846C33.4748 6.278 33.7808 6.794 33.9968 7.394C34.2248 7.982 34.3388 8.606 34.3388 9.266C34.3388 9.95 34.2368 10.592 34.0328 11.192C33.8288 11.792 33.5408 12.314 33.1688 12.758C32.8088 13.202 32.3768 13.55 31.8728 13.802C31.3688 14.054 30.8168 14.18 30.2168 14.18ZM29.4068 12.128C29.7668 12.128 30.0968 12.05 30.3968 11.894C30.7088 11.738 30.9728 11.528 31.1888 11.264C31.4048 11 31.5728 10.694 31.6928 10.346C31.8128 9.998 31.8728 9.638 31.8728 9.266C31.8728 8.87 31.8068 8.504 31.6748 8.168C31.5428 7.82 31.3568 7.52 31.1168 7.268C30.8888 7.016 30.6128 6.818 30.2888 6.674C29.9768 6.53 29.6348 6.458 29.2628 6.458C29.0348 6.458 28.8008 6.5 28.5608 6.584C28.3208 6.656 28.0988 6.764 27.8948 6.908C27.6908 7.052 27.5048 7.22 27.3368 7.412C27.1808 7.604 27.0608 7.814 26.9768 8.042V10.256C27.1928 10.796 27.5228 11.246 27.9668 11.606C28.4108 11.954 28.8908 12.128 29.4068 12.128ZM35.379 9.284C35.379 8.624 35.493 8 35.721 7.412C35.949 6.824 36.279 6.308 36.711 5.864C37.143 5.42 37.665 5.066 38.277 4.802C38.889 4.538 39.579 4.406 40.347 4.406C41.379 4.406 42.255 4.628 42.975 5.072C43.707 5.516 44.253 6.098 44.613 6.818L42.255 7.538C42.051 7.19 41.781 6.926 41.445 6.746C41.109 6.554 40.737 6.458 40.329 6.458C39.981 6.458 39.657 6.53 39.357 6.674C39.057 6.806 38.793 6.998 38.565 7.25C38.349 7.49 38.175 7.784 38.043 8.132C37.923 8.48 37.863 8.864 37.863 9.284C37.863 9.704 37.929 10.088 38.061 10.436C38.193 10.784 38.367 11.084 38.583 11.336C38.811 11.588 39.075 11.786 39.375 11.93C39.675 12.062 39.993 12.128 40.329 12.128C40.761 12.128 41.157 12.02 41.517 11.804C41.889 11.588 42.147 11.324 42.291 11.012L44.649 11.732C44.325 12.452 43.791 13.04 43.047 13.496C42.303 13.952 41.409 14.18 40.365 14.18C39.597 14.18 38.907 14.048 38.295 13.784C37.683 13.52 37.161 13.166 36.729 12.722C36.297 12.266 35.961 11.744 35.721 11.156C35.493 10.556 35.379 9.932 35.379 9.284ZM48.7072 14.18C48.2512 14.18 47.8252 14.108 47.4292 13.964C47.0332 13.808 46.6912 13.598 46.4032 13.334C46.1152 13.058 45.8872 12.74 45.7192 12.38C45.5632 12.02 45.4852 11.624 45.4852 11.192C45.4852 10.748 45.5812 10.34 45.7732 9.968C45.9772 9.584 46.2532 9.26 46.6012 8.996C46.9612 8.732 47.3872 8.528 47.8792 8.384C48.3712 8.228 48.9112 8.15 49.4992 8.15C49.9192 8.15 50.3272 8.186 50.7232 8.258C51.1312 8.33 51.4912 8.432 51.8032 8.564V8.024C51.8032 7.4 51.6232 6.92 51.2632 6.584C50.9152 6.248 50.3932 6.08 49.6972 6.08C49.1932 6.08 48.7012 6.17 48.2212 6.35C47.7412 6.53 47.2492 6.794 46.7452 7.142L46.0072 5.612C47.2192 4.808 48.5272 4.406 49.9312 4.406C51.2872 4.406 52.3372 4.742 53.0812 5.414C53.8372 6.074 54.2152 7.034 54.2152 8.294V11.228C54.2152 11.48 54.2572 11.66 54.3412 11.768C54.4372 11.876 54.5872 11.936 54.7912 11.948V14C54.3832 14.084 54.0292 14.126 53.7292 14.126C53.2732 14.126 52.9192 14.024 52.6672 13.82C52.4272 13.616 52.2772 13.346 52.2172 13.01L52.1632 12.488C51.7432 13.04 51.2332 13.46 50.6332 13.748C50.0332 14.036 49.3912 14.18 48.7072 14.18ZM49.3912 12.416C49.7992 12.416 50.1832 12.344 50.5432 12.2C50.9152 12.056 51.2032 11.864 51.4072 11.624C51.6712 11.42 51.8032 11.192 51.8032 10.94V9.86C51.5152 9.752 51.2032 9.668 50.8672 9.608C50.5312 9.536 50.2072 9.5 49.8952 9.5C49.2712 9.5 48.7612 9.644 48.3652 9.932C47.9692 10.208 47.7712 10.562 47.7712 10.994C47.7712 11.402 47.9272 11.744 48.2392 12.02C48.5512 12.284 48.9352 12.416 49.3912 12.416ZM62.9131 14L60.1771 9.914L58.8811 11.192V14H56.4691V0.86H58.8811V8.834L62.6611 4.586H65.2351L61.7251 8.582L65.4871 14H62.9131ZM70.388 14.18C69.632 14.18 68.948 14.054 68.336 13.802C67.724 13.538 67.202 13.184 66.77 12.74C66.338 12.296 66.002 11.78 65.762 11.192C65.534 10.604 65.42 9.986 65.42 9.338C65.42 8.666 65.534 8.036 65.762 7.448C65.99 6.848 66.32 6.326 66.752 5.882C67.184 5.426 67.706 5.066 68.318 4.802C68.942 4.538 69.638 4.406 70.406 4.406C71.174 4.406 71.858 4.538 72.458 4.802C73.07 5.066 73.586 5.42 74.006 5.864C74.438 6.308 74.762 6.824 74.978 7.412C75.206 8 75.32 8.612 75.32 9.248C75.32 9.404 75.314 9.554 75.302 9.698C75.302 9.842 75.29 9.962 75.266 10.058H67.976C68.012 10.43 68.102 10.76 68.246 11.048C68.39 11.336 68.576 11.582 68.804 11.786C69.032 11.99 69.29 12.146 69.578 12.254C69.866 12.362 70.166 12.416 70.478 12.416C70.958 12.416 71.408 12.302 71.828 12.074C72.26 11.834 72.554 11.522 72.71 11.138L74.78 11.714C74.432 12.434 73.874 13.028 73.106 13.496C72.35 13.952 71.444 14.18 70.388 14.18ZM72.836 8.492C72.776 7.784 72.512 7.22 72.044 6.8C71.588 6.368 71.03 6.152 70.37 6.152C70.046 6.152 69.74 6.212 69.452 6.332C69.176 6.44 68.93 6.596 68.714 6.8C68.498 7.004 68.318 7.25 68.174 7.538C68.042 7.826 67.964 8.144 67.94 8.492H72.836ZM77.3654 14V1.22H81.6134C82.6214 1.22 83.5034 1.388 84.2594 1.724C85.0274 2.06 85.6634 2.516 86.1674 3.092C86.6714 3.668 87.0494 4.346 87.3014 5.126C87.5534 5.894 87.6794 6.716 87.6794 7.592C87.6794 8.564 87.5354 9.446 87.2474 10.238C86.9714 11.018 86.5694 11.69 86.0414 12.254C85.5134 12.806 84.8714 13.238 84.1154 13.55C83.3714 13.85 82.5374 14 81.6134 14H77.3654ZM86.7614 7.592C86.7614 6.788 86.6474 6.05 86.4194 5.378C86.1914 4.694 85.8554 4.106 85.4114 3.614C84.9794 3.122 84.4454 2.738 83.8094 2.462C83.1734 2.186 82.4414 2.048 81.6134 2.048H78.2834V13.172H81.6134C82.4534 13.172 83.1914 13.034 83.8274 12.758C84.4754 12.47 85.0154 12.074 85.4474 11.57C85.8794 11.066 86.2034 10.478 86.4194 9.806C86.6474 9.122 86.7614 8.384 86.7614 7.592ZM93.9054 14.18C93.2454 14.18 92.6334 14.054 92.0694 13.802C91.5054 13.538 91.0134 13.184 90.5934 12.74C90.1854 12.284 89.8614 11.762 89.6214 11.174C89.3934 10.586 89.2794 9.956 89.2794 9.284C89.2794 8.624 89.3934 8.006 89.6214 7.43C89.8614 6.842 90.1854 6.332 90.5934 5.9C91.0014 5.456 91.4814 5.108 92.0334 4.856C92.5974 4.604 93.2034 4.478 93.8514 4.478C94.5114 4.478 95.1234 4.61 95.6874 4.874C96.2514 5.126 96.7374 5.474 97.1454 5.918C97.5534 6.35 97.8714 6.86 98.0994 7.448C98.3274 8.024 98.4414 8.636 98.4414 9.284C98.4414 9.344 98.4414 9.422 98.4414 9.518C98.4414 9.602 98.4354 9.656 98.4234 9.68H90.2154C90.2514 10.22 90.3774 10.724 90.5934 11.192C90.8094 11.648 91.0794 12.044 91.4034 12.38C91.7394 12.716 92.1234 12.98 92.5554 13.172C92.9874 13.364 93.4494 13.46 93.9414 13.46C94.2654 13.46 94.5834 13.418 94.8954 13.334C95.2074 13.238 95.4954 13.112 95.7594 12.956C96.0354 12.8 96.2754 12.614 96.4794 12.398C96.6954 12.17 96.8634 11.924 96.9834 11.66L97.7754 11.876C97.6434 12.212 97.4454 12.524 97.1814 12.812C96.9294 13.088 96.6294 13.328 96.2814 13.532C95.9454 13.736 95.5734 13.892 95.1654 14C94.7574 14.12 94.3374 14.18 93.9054 14.18ZM97.5774 8.96C97.5414 8.408 97.4154 7.904 97.1994 7.448C96.9954 6.992 96.7254 6.602 96.3894 6.278C96.0654 5.942 95.6874 5.684 95.2554 5.504C94.8234 5.312 94.3614 5.216 93.8694 5.216C93.3774 5.216 92.9154 5.312 92.4834 5.504C92.0514 5.684 91.6674 5.942 91.3314 6.278C91.0074 6.602 90.7434 6.998 90.5394 7.466C90.3474 7.922 90.2334 8.42 90.1974 8.96H97.5774ZM103.392 14.18C102.672 14.18 101.982 14.06 101.322 13.82C100.662 13.58 100.086 13.22 99.5936 12.74L100.044 12.128C100.548 12.584 101.07 12.92 101.61 13.136C102.15 13.352 102.744 13.46 103.392 13.46C104.208 13.46 104.862 13.292 105.354 12.956C105.858 12.608 106.11 12.128 106.11 11.516C106.11 11.228 106.044 10.988 105.912 10.796C105.792 10.592 105.606 10.424 105.354 10.292C105.102 10.148 104.79 10.022 104.418 9.914C104.046 9.806 103.614 9.692 103.122 9.572C102.594 9.452 102.132 9.332 101.736 9.212C101.352 9.092 101.034 8.948 100.782 8.78C100.53 8.612 100.338 8.408 100.206 8.168C100.086 7.928 100.026 7.622 100.026 7.25C100.026 6.782 100.116 6.374 100.296 6.026C100.476 5.678 100.722 5.39 101.034 5.162C101.358 4.934 101.724 4.766 102.132 4.658C102.552 4.538 102.996 4.478 103.464 4.478C104.196 4.478 104.844 4.604 105.408 4.856C105.972 5.096 106.41 5.408 106.722 5.792L106.218 6.278C105.906 5.918 105.498 5.648 104.994 5.468C104.502 5.288 103.974 5.198 103.41 5.198C103.062 5.198 102.732 5.234 102.42 5.306C102.12 5.378 101.856 5.492 101.628 5.648C101.4 5.804 101.22 6.008 101.088 6.26C100.956 6.5 100.89 6.788 100.89 7.124C100.89 7.4 100.932 7.622 101.016 7.79C101.112 7.958 101.256 8.102 101.448 8.222C101.652 8.342 101.91 8.45 102.222 8.546C102.534 8.63 102.906 8.726 103.338 8.834C103.926 8.978 104.448 9.116 104.904 9.248C105.36 9.38 105.738 9.542 106.038 9.734C106.35 9.926 106.584 10.154 106.74 10.418C106.908 10.682 106.992 11.018 106.992 11.426C106.992 12.266 106.662 12.938 106.002 13.442C105.354 13.934 104.484 14.18 103.392 14.18ZM109.088 14V4.64H109.988V14H109.088ZM109.088 2.516V0.86H109.988V2.516H109.088ZM116.594 14.144C115.946 14.144 115.352 14.012 114.812 13.748C114.272 13.472 113.804 13.112 113.408 12.668C113.024 12.212 112.718 11.696 112.49 11.12C112.274 10.544 112.166 9.95 112.166 9.338C112.166 8.702 112.268 8.09 112.472 7.502C112.688 6.914 112.988 6.398 113.372 5.954C113.756 5.498 114.212 5.138 114.74 4.874C115.28 4.61 115.874 4.478 116.522 4.478C117.338 4.478 118.046 4.694 118.646 5.126C119.258 5.546 119.774 6.062 120.194 6.674V4.64H121.022V14.18C121.022 14.816 120.902 15.374 120.662 15.854C120.422 16.334 120.098 16.73 119.69 17.042C119.294 17.366 118.826 17.606 118.286 17.762C117.758 17.93 117.2 18.014 116.612 18.014C116.072 18.014 115.586 17.96 115.154 17.852C114.722 17.756 114.338 17.612 114.002 17.42C113.678 17.24 113.384 17.012 113.12 16.736C112.868 16.472 112.646 16.178 112.454 15.854L113.066 15.44C113.438 16.076 113.942 16.538 114.578 16.826C115.214 17.126 115.892 17.276 116.612 17.276C117.092 17.276 117.542 17.21 117.962 17.078C118.394 16.946 118.766 16.748 119.078 16.484C119.402 16.232 119.654 15.914 119.834 15.53C120.026 15.146 120.122 14.696 120.122 14.18V12.128C119.738 12.74 119.228 13.232 118.592 13.604C117.956 13.964 117.29 14.144 116.594 14.144ZM116.81 13.37C117.206 13.37 117.59 13.298 117.962 13.154C118.346 12.998 118.688 12.8 118.988 12.56C119.3 12.32 119.552 12.05 119.744 11.75C119.948 11.45 120.074 11.15 120.122 10.85V7.772C119.978 7.412 119.786 7.082 119.546 6.782C119.306 6.47 119.03 6.206 118.718 5.99C118.418 5.774 118.088 5.606 117.728 5.486C117.38 5.354 117.026 5.288 116.666 5.288C116.102 5.288 115.598 5.408 115.154 5.648C114.71 5.888 114.332 6.2 114.02 6.584C113.72 6.968 113.486 7.406 113.318 7.898C113.162 8.378 113.084 8.864 113.084 9.356C113.084 9.896 113.18 10.406 113.372 10.886C113.564 11.366 113.828 11.792 114.164 12.164C114.5 12.536 114.896 12.83 115.352 13.046C115.808 13.262 116.294 13.37 116.81 13.37ZM131.486 14H130.586V8.78C130.586 7.568 130.412 6.686 130.064 6.134C129.728 5.582 129.188 5.306 128.444 5.306C128.048 5.306 127.652 5.378 127.256 5.522C126.872 5.666 126.512 5.87 126.176 6.134C125.84 6.398 125.546 6.71 125.294 7.07C125.042 7.418 124.856 7.796 124.736 8.204V14H123.836V4.64H124.682V6.872C124.874 6.512 125.108 6.188 125.384 5.9C125.672 5.6 125.99 5.348 126.338 5.144C126.698 4.928 127.076 4.766 127.472 4.658C127.868 4.538 128.276 4.478 128.696 4.478C129.716 4.478 130.436 4.838 130.856 5.558C131.276 6.266 131.486 7.286 131.486 8.618V14Z" fill="black"/>
</svg>
